<svg width="177" height="57" viewBox="0 0 177 57" fill="none" xmlns="http://www.w3.org/2000/svg">
<path d="M29.464 2.912V9.24H19.048V42H11.208V9.24H0.792V2.912H29.464ZM48.9603 42.504C45.9736 42.504 43.2856 41.8507 40.8963 40.544C38.507 39.2 36.6216 37.3147 35.2403 34.888C33.8963 32.4613 33.2243 29.6613 33.2243 26.488C33.2243 23.3147 33.915 20.5147 35.2963 18.088C36.715 15.6613 38.6376 13.7947 41.0643 12.488C43.491 11.144 46.1976 10.472 49.1843 10.472C52.171 10.472 54.8776 11.144 57.3043 12.488C59.731 13.7947 61.635 15.6613 63.0163 18.088C64.435 20.5147 65.1443 23.3147 65.1443 26.488C65.1443 29.6613 64.4163 32.4613 62.9603 34.888C61.5416 37.3147 59.6003 39.2 57.1363 40.544C54.7096 41.8507 51.9843 42.504 48.9603 42.504ZM48.9603 35.672C50.379 35.672 51.7043 35.336 52.9363 34.664C54.2056 33.9547 55.2136 32.9093 55.9603 31.528C56.707 30.1467 57.0803 28.4667 57.0803 26.488C57.0803 23.5387 56.2963 21.28 54.7283 19.712C53.1976 18.1067 51.3123 17.304 49.0723 17.304C46.8323 17.304 44.947 18.1067 43.4163 19.712C41.923 21.28 41.1763 23.5387 41.1763 26.488C41.1763 29.4373 41.9043 31.7147 43.3603 33.32C44.8536 34.888 46.7203 35.672 48.9603 35.672ZM70.0553 26.768C70.0553 23.632 70.6713 20.888 71.9033 18.536C73.1726 16.184 74.9086 14.3733 77.1113 13.104C79.3513 11.8347 81.8899 11.2 84.7273 11.2C87.8259 11.2 90.5139 11.984 92.7913 13.552C95.0686 15.0827 96.6739 17.08 97.6073 19.544V0.559999H100.127V42H97.6073V33.936C96.7113 36.4373 95.1433 38.4907 92.9033 40.096C90.6633 41.664 87.9379 42.448 84.7273 42.448C81.8899 42.448 79.3513 41.8133 77.1113 40.544C74.9086 39.2373 73.1726 37.408 71.9033 35.056C70.6713 32.6667 70.0553 29.904 70.0553 26.768ZM97.6073 26.768C97.6073 24.1173 97.0473 21.784 95.9273 19.768C94.8446 17.7147 93.3513 16.1467 91.4473 15.064C89.5433 13.944 87.4153 13.384 85.0633 13.384C82.5993 13.384 80.4339 13.9253 78.5673 15.008C76.7006 16.0533 75.2446 17.584 74.1993 19.6C73.1539 21.616 72.6313 24.0053 72.6313 26.768C72.6313 29.5307 73.1539 31.92 74.1993 33.936C75.2446 35.952 76.7006 37.5013 78.5673 38.584C80.4713 39.6667 82.6366 40.208 85.0633 40.208C87.4153 40.208 89.5433 39.6667 91.4473 38.584C93.3886 37.464 94.9006 35.896 95.9833 33.88C97.0659 31.8267 97.6073 29.456 97.6073 26.768ZM110.535 26.768C110.535 23.632 111.151 20.888 112.383 18.536C113.652 16.184 115.388 14.3733 117.591 13.104C119.831 11.8347 122.37 11.2 125.207 11.2C128.418 11.2 131.143 11.984 133.383 13.552C135.623 15.12 137.191 17.1173 138.087 19.544V11.592H140.607V42H138.087V33.992C137.191 36.456 135.604 38.4907 133.327 40.096C131.087 41.664 128.38 42.448 125.207 42.448C122.37 42.448 119.831 41.8133 117.591 40.544C115.388 39.2373 113.652 37.408 112.383 35.056C111.151 32.6667 110.535 29.904 110.535 26.768ZM138.087 26.768C138.087 24.1173 137.527 21.784 136.407 19.768C135.324 17.7147 133.831 16.1467 131.927 15.064C130.023 13.944 127.895 13.384 125.543 13.384C123.079 13.384 120.914 13.9253 119.047 15.008C117.18 16.0533 115.724 17.584 114.679 19.6C113.634 21.616 113.111 24.0053 113.111 26.768C113.111 29.5307 113.634 31.92 114.679 33.936C115.724 35.952 117.18 37.5013 119.047 38.584C120.951 39.6667 123.116 40.208 125.543 40.208C127.895 40.208 130.023 39.6667 131.927 38.584C133.868 37.464 135.38 35.896 136.463 33.88C137.546 31.8267 138.087 29.456 138.087 26.768ZM176.327 11.592L158.631 56.28H156.055L161.711 42L148.943 11.592H151.687L163.111 39.2L173.751 11.592H176.327Z" fill="white"/>
</svg>
